<svg width="24" height="25" viewBox="0 0 24 25" fill="none" xmlns="http://www.w3.org/2000/svg">
<g clip-path="url(#clip0)">
<path d="M22.9082 1.30518V1.30511C22.9082 1.28055 22.9018 1.25641 22.8896 1.23509C22.8774 1.21376 22.8598 1.196 22.8387 1.18355C22.8175 1.1711 22.7934 1.1644 22.7689 1.16411C22.7473 1.16386 22.7261 1.16854 22.7067 1.17773L3.99735 11.6704L3.12493 12.1597L3.99739 12.649L22.7074 23.143L22.7074 23.143L22.7145 23.147C22.7284 23.155 22.744 23.1595 22.7601 23.1601C22.799 23.1584 22.8359 23.142 22.8634 23.1142C22.8921 23.0852 22.9082 23.0461 22.9082 23.0052V23.0052V22.9952V22.9942V1.32918V1.30518ZM2.5082 10.7982V1.16018H2.1092V23.1592H2.5082V13.5212V12.5055V11.8138V10.7982Z" stroke="#230B34" stroke-opacity="0.38" stroke-width="2"/>
</g>
<defs>
<clipPath id="clip0">
<rect width="23" height="24" fill="white" transform="matrix(-1 0 0 1 23.9082 0.15918)"/>
</clipPath>
</defs>
</svg>
