<svg width="40" height="40" viewBox="0 0 12 12" fill="none" xmlns="http://www.w3.org/2000/svg">
<path fill-rule="evenodd" clip-rule="evenodd" d="M9.23931 2.63926C9.26098 2.68005 9.29889 2.70918 9.34764 2.70918C10.6476 2.70918 11.7093 3.85125 11.7093 5.24969V8.71085C11.7093 10.1093 10.6476 11.2514 9.34764 11.2514H3.23764C1.93223 11.2514 0.875977 10.1093 0.875977 8.71085V5.24969C0.875977 3.85125 1.93223 2.70918 3.23764 2.70918C3.28098 2.70918 3.32431 2.68588 3.34056 2.63926L3.37306 2.56934C3.39173 2.52702 3.41089 2.48355 3.43034 2.43943C3.56892 2.12509 3.72223 1.77733 3.81723 1.57295C4.06639 1.04853 4.48889 0.757185 5.01431 0.751358H7.56556C8.09098 0.757185 8.51889 1.04853 8.76806 1.57295C8.85337 1.7565 8.98336 2.05216 9.10863 2.33713C9.13448 2.39592 9.16013 2.45426 9.18514 2.51107L9.23931 2.63926ZM8.84391 4.87678C8.84391 5.16812 9.06058 5.40119 9.33141 5.40119C9.60224 5.40119 9.82433 5.16812 9.82433 4.87678C9.82433 4.58543 9.60224 4.34653 9.33141 4.34653C9.06058 4.34653 8.84391 4.58543 8.84391 4.87678ZM5.35573 5.77994C5.61031 5.50608 5.94073 5.36041 6.29281 5.36041C6.6449 5.36041 6.97532 5.50608 7.22448 5.77411C7.47365 6.04215 7.60907 6.39759 7.60907 6.77633C7.60365 7.55713 7.01865 8.19226 6.29281 8.19226C5.94073 8.19226 5.61031 8.04659 5.36115 7.77855C5.11198 7.51052 4.97656 7.15508 4.97656 6.77633V6.77051C4.97115 6.40341 5.10656 6.04798 5.35573 5.77994ZM7.79328 8.39619C7.4087 8.8099 6.87787 9.06628 6.29287 9.06628C5.72412 9.06628 5.19328 8.82738 4.78703 8.39619C4.3862 7.95918 4.16412 7.38815 4.16412 6.77633C4.1587 6.17033 4.38078 5.5993 4.78162 5.16229C5.18787 4.72527 5.72412 4.48637 6.29287 4.48637C6.86162 4.48637 7.39787 4.72527 7.7987 5.15646C8.19953 5.59347 8.42162 6.17033 8.42162 6.77633C8.4162 7.41146 8.17787 7.98249 7.79328 8.39619Z" fill="#7869C6"/>
</svg>
