<svg width="25" height="24" viewBox="0 0 25 24" fill="none" xmlns="http://www.w3.org/2000/svg">
<path fill-rule="evenodd" clip-rule="evenodd" d="M8.30072 2H16.6817C19.7707 2 21.4907 3.78 21.4907 6.83V17.16C21.4907 20.26 19.7707 22 16.6817 22H8.30072C5.26072 22 3.49072 20.26 3.49072 17.16V6.83C3.49072 3.78 5.26072 2 8.30072 2ZM8.57072 6.66V6.65H11.5597C11.9907 6.65 12.3407 7 12.3407 7.429C12.3407 7.87 11.9907 8.22 11.5597 8.22H8.57072C8.13972 8.22 7.79072 7.87 7.79072 7.44C7.79072 7.01 8.13972 6.66 8.57072 6.66ZM8.57072 12.74H16.4107C16.8407 12.74 17.1907 12.39 17.1907 11.96C17.1907 11.53 16.8407 11.179 16.4107 11.179H8.57072C8.13972 11.179 7.79072 11.53 7.79072 11.96C7.79072 12.39 8.13972 12.74 8.57072 12.74ZM8.57072 17.31H16.4107C16.8097 17.27 17.1107 16.929 17.1107 16.53C17.1107 16.12 16.8097 15.78 16.4107 15.74H8.57072C8.27072 15.71 7.98072 15.85 7.82072 16.11C7.66072 16.36 7.66072 16.69 7.82072 16.95C7.98072 17.2 8.27072 17.35 8.57072 17.31Z" fill="white" fill-opacity="0.3"/>
</svg>
