<svg width="44" height="43" viewBox="0 0 44 43" fill="none" xmlns="http://www.w3.org/2000/svg">
<path fill-rule="evenodd" clip-rule="evenodd" d="M0.0371094 21.6156C0.0371094 9.85839 9.80066 0.327301 21.8446 0.327301C33.8886 0.327301 43.6521 9.85839 43.6521 21.6156C43.6521 33.3728 33.8886 42.9039 21.8446 42.9039C9.80066 42.9039 0.0371094 33.3728 0.0371094 21.6156ZM16.6608 9.55225L8.76014 14.588L14.2231 18.8583L22.1889 14.0566L16.6608 9.55225ZM8.76011 23.1292L16.6607 28.1649L22.1891 23.6603L14.2231 18.8583L8.76011 23.1292ZM22.1891 23.6603L27.7175 28.1648L35.6181 23.1291L30.1554 18.8585L22.1891 23.6603ZM35.6182 14.5879L27.7176 9.55222L22.1889 14.0566L30.1554 18.8585L35.6182 14.5879ZM22.2054 24.6293L16.6609 29.1207L14.2881 27.6085V29.3037L22.2054 33.9384L30.1226 29.3037V27.6085L27.7499 29.1207L22.2054 24.6293Z" fill="#999999"/>
</svg>
