<svg width="17" height="18" viewBox="0 0 17 18" fill="none" xmlns="http://www.w3.org/2000/svg">
<path d="M15.6725 5.66544L6.88616 17.0279C6.48292 17.5439 5.88868 17.8341 5.25198 17.8449L1.75016 17.8879C1.55915 17.8879 1.39998 17.7589 1.35753 17.5761L0.561664 14.1255C0.423714 13.4912 0.561664 12.8355 0.964904 12.3303L7.1939 4.26797C7.30001 4.13898 7.49102 4.11855 7.61836 4.21422L10.2394 6.29967C10.4092 6.43942 10.6427 6.51467 10.8867 6.48242C11.4067 6.41792 11.7569 5.94493 11.7038 5.43969C11.672 5.1817 11.5446 4.96671 11.3749 4.80546C11.3218 4.76246 8.82808 2.76301 8.82808 2.76301C8.66891 2.63401 8.63707 2.39752 8.76441 2.23735L9.75129 0.957057C10.6639 -0.214663 12.2556 -0.322161 13.5396 0.699064L15.0146 1.87078C15.6195 2.34377 16.0227 2.96726 16.1607 3.62299C16.3199 4.3443 16.1501 5.0527 15.6725 5.66544Z" fill="white" fill-opacity="0.3"/>
</svg>
