<svg width="24" height="25" viewBox="0 0 24 25" fill="none" xmlns="http://www.w3.org/2000/svg">
<g clip-path="url(#clip0)">
<path d="M1.72412 1.30518V1.30511C1.72412 1.28055 1.73054 1.25641 1.74273 1.23509C1.75493 1.21376 1.77249 1.196 1.79367 1.18355C1.81484 1.1711 1.8389 1.1644 1.86347 1.16411C1.88499 1.16386 1.90624 1.16854 1.9256 1.17773L20.635 11.6704L21.5074 12.1597L20.6349 12.649L1.92494 23.143L1.92492 23.143L1.91787 23.147C1.90393 23.155 1.88828 23.1595 1.87227 23.1601C1.83333 23.1584 1.7964 23.142 1.7689 23.1142C1.74021 23.0852 1.72412 23.0461 1.72412 23.0052V23.0052V22.9952V22.9942V1.32918V1.30518ZM22.1241 10.7982V1.16018H22.5231V23.1592H22.1241V13.5212V12.5055V11.8138V10.7982Z" stroke="#230B34" stroke-opacity="0.38" stroke-width="2"/>
</g>
<defs>
<clipPath id="clip0">
<rect width="23" height="24" fill="white" transform="translate(0.724121 0.15918)"/>
</clipPath>
</defs>
</svg>
