<svg width="25" height="33" viewBox="0 0 25 33" fill="none" xmlns="http://www.w3.org/2000/svg">
<path d="M9.60597 20.7733V17.7156C9.60597 16.9351 10.2434 16.3023 11.0296 16.3023H13.9038C14.2814 16.3023 14.6435 16.4512 14.9105 16.7163C15.1775 16.9813 15.3275 17.3408 15.3275 17.7156V20.7733C15.3251 21.0978 15.4533 21.4099 15.6836 21.6402C15.9139 21.8705 16.2272 22 16.5541 22H18.515C19.4308 22.0023 20.3099 21.6428 20.9584 21.0008C21.6068 20.3588 21.9712 19.487 21.9712 18.5778V9.86686C21.9712 9.13246 21.6433 8.43584 21.0758 7.96467L14.4052 2.67587C13.2449 1.74856 11.5823 1.7785 10.4566 2.74698L3.9382 7.96467C3.34393 8.42195 2.98874 9.12064 2.97119 9.86686V18.5689C2.97119 20.4639 4.51857 22 6.42736 22H8.34348C9.02242 22 9.57419 21.4562 9.57911 20.7822L9.60597 20.7733Z" fill="white"/>
<circle cx="12.4713" cy="29.0898" r="3.08704" fill="white"/>
</svg>
