<svg width="25" height="24" viewBox="0 0 25 24" fill="none" xmlns="http://www.w3.org/2000/svg">
<path d="M9.92189 20.7733V17.7156C9.92189 16.9351 10.5593 16.3023 11.3455 16.3023H14.2197C14.5973 16.3023 14.9594 16.4512 15.2264 16.7163C15.4934 16.9813 15.6434 17.3408 15.6434 17.7156V20.7733C15.641 21.0978 15.7692 21.4099 15.9995 21.6402C16.2298 21.8705 16.5432 22 16.8701 22H18.8309C19.7467 22.0023 20.6259 21.6428 21.2743 21.0008C21.9227 20.3588 22.2871 19.487 22.2871 18.5778V9.86686C22.2871 9.13246 21.9592 8.43584 21.3917 7.96467L14.7211 2.67587C13.5608 1.74856 11.8982 1.7785 10.7725 2.74698L4.25412 7.96467C3.65985 8.42195 3.30466 9.12064 3.28711 9.86686V18.5689C3.28711 20.4639 4.83449 22 6.74328 22H8.6594C9.33834 22 9.89011 21.4562 9.89503 20.7822L9.92189 20.7733Z" fill="white" fill-opacity="0.3"/>
</svg>
