<svg width="43" height="44" viewBox="0 0 43 44" fill="none" xmlns="http://www.w3.org/2000/svg">
<path fill-rule="evenodd" clip-rule="evenodd" d="M0.345703 22.27C0.345703 10.5128 9.87679 0.981689 21.634 0.981689C33.3912 0.981689 42.9223 10.5128 42.9223 22.27C42.9223 34.0272 33.3912 43.5582 21.634 43.5582C9.87679 43.5582 0.345703 34.0272 0.345703 22.27ZM21.635 10.9162C18.5515 10.9162 18.1645 10.9297 16.9535 10.9848C15.7448 11.0402 14.9197 11.2315 14.1978 11.5123C13.451 11.8023 12.8176 12.1902 12.1865 12.8215C11.5549 13.4526 11.167 14.0861 10.8761 14.8326C10.5946 15.5547 10.403 16.38 10.3486 17.5883C10.2944 18.7994 10.2802 19.1866 10.2802 22.2701C10.2802 25.3536 10.294 25.7394 10.3488 26.9505C10.4044 28.1592 10.5958 28.9842 10.8763 29.7062C11.1665 30.4529 11.5545 31.0864 12.1858 31.7174C12.8166 32.349 13.4501 32.7379 14.1964 33.0279C14.9188 33.3086 15.744 33.5 16.9525 33.5554C18.1636 33.6105 18.5503 33.624 21.6336 33.624C24.7174 33.624 25.1032 33.6105 26.3143 33.5554C27.523 33.5 28.349 33.3086 29.0714 33.0279C29.8179 32.7379 30.4504 32.349 31.0812 31.7174C31.7128 31.0864 32.1007 30.4529 32.3917 29.7064C32.6708 28.9842 32.8624 28.159 32.9191 26.9507C32.9735 25.7396 32.9877 25.3536 32.9877 22.2701C32.9877 19.1866 32.9735 18.7996 32.9191 17.5885C32.8624 16.3798 32.6708 15.5547 32.3917 14.8328C32.1007 14.0861 31.7128 13.4526 31.0812 12.8215C30.4497 12.19 29.8181 11.8021 29.0706 11.5123C28.3468 11.2315 27.5213 11.0402 26.3126 10.9848C25.1015 10.9297 24.716 10.9162 21.6315 10.9162H21.635Z" fill="#999999"/>
<path fill-rule="evenodd" clip-rule="evenodd" d="M20.6165 12.9623C20.9188 12.9618 21.2561 12.9623 21.635 12.9623C24.6665 12.9623 25.0258 12.9732 26.223 13.0276C27.33 13.0782 27.9308 13.2632 28.331 13.4186C28.8608 13.6244 29.2386 13.8704 29.6357 14.2677C30.0331 14.6651 30.2791 15.0436 30.4854 15.5734C30.6408 15.9732 30.826 16.574 30.8764 17.681C30.9308 18.8779 30.9426 19.2374 30.9426 22.2675C30.9426 25.2975 30.9308 25.6571 30.8764 26.854C30.8258 27.961 30.6408 28.5618 30.4854 28.9615C30.2796 29.4914 30.0331 29.8687 29.6357 30.2658C29.2384 30.6632 28.8611 30.9092 28.331 31.115C27.9312 31.2711 27.33 31.4556 26.223 31.5062C25.0261 31.5606 24.6665 31.5725 21.635 31.5725C18.6033 31.5725 18.244 31.5606 17.0471 31.5062C15.9401 31.4551 15.3393 31.2702 14.9389 31.1147C14.409 30.909 14.0306 30.663 13.6332 30.2656C13.2358 29.8682 12.9898 29.4907 12.7835 28.9606C12.6281 28.5608 12.4429 27.96 12.3925 26.853C12.3381 25.6561 12.3272 25.2966 12.3272 22.2646C12.3272 19.2327 12.3381 18.875 12.3925 17.6782C12.4431 16.5712 12.6281 15.9703 12.7835 15.5701C12.9893 15.0403 13.2358 14.6618 13.6332 14.2644C14.0306 13.867 14.409 13.621 14.9389 13.4148C15.3391 13.2587 15.9401 13.0742 17.0471 13.0233C18.0945 12.976 18.5004 12.9618 20.6165 12.9594V12.9623ZM27.6956 14.8475C26.9435 14.8475 26.3332 15.4571 26.3332 16.2095C26.3332 16.9617 26.9435 17.572 27.6956 17.572C28.4478 17.572 29.0581 16.9617 29.0581 16.2095C29.0581 15.4573 28.4478 14.8475 27.6956 14.8475ZM21.635 16.4394C18.415 16.4394 15.8044 19.0501 15.8044 22.2701C15.8044 25.4901 18.415 28.0996 21.635 28.0996C24.855 28.0996 27.4648 25.4901 27.4648 22.2701C27.4648 19.0501 24.855 16.4394 21.635 16.4394Z" fill="#999999"/>
<path fill-rule="evenodd" clip-rule="evenodd" d="M21.635 18.4855C23.7251 18.4855 25.4197 20.1798 25.4197 22.2701C25.4197 24.3601 23.7251 26.0547 21.635 26.0547C19.5448 26.0547 17.8504 24.3601 17.8504 22.2701C17.8504 20.1798 19.5448 18.4855 21.635 18.4855Z" fill="#999999"/>
</svg>
