<svg width="44" height="44" viewBox="0 0 44 44" fill="none" xmlns="http://www.w3.org/2000/svg">
<path fill-rule="evenodd" clip-rule="evenodd" d="M0.0371094 22.27C0.0371094 10.5128 9.80066 0.981689 21.8446 0.981689C33.8886 0.981689 43.6521 10.5128 43.6521 22.27C43.6521 34.0272 33.8886 43.5582 21.8446 43.5582C9.80066 43.5582 0.0371094 34.0272 0.0371094 22.27ZM15.4483 18.6136H10.5062V33.1089H15.4483V18.6136ZM15.7737 14.1296C15.7416 12.7083 14.7005 11.6258 13.0099 11.6258C11.3192 11.6258 10.2139 12.7083 10.2139 14.1296C10.2139 15.5214 11.2865 16.6351 12.9457 16.6351H12.9773C14.7005 16.6351 15.7737 15.5214 15.7737 14.1296ZM33.2712 24.7977C33.2712 20.3454 30.8331 18.2732 27.581 18.2732C24.9571 18.2732 23.7823 19.6801 23.1264 20.6671V18.614H18.1838C18.2489 19.9741 18.1838 33.1092 18.1838 33.1092H23.1264V25.0139C23.1264 24.5807 23.1585 24.1485 23.2892 23.8383C23.6463 22.9729 24.4596 22.0768 25.8249 22.0768C27.614 22.0768 28.3291 23.406 28.3291 25.3539V33.1089H33.271L33.2712 24.7977Z" fill="#999999"/>
</svg>
