<svg width="5" height="19" viewBox="0 0 5 19" fill="none" xmlns="http://www.w3.org/2000/svg">
<path d="M4.72463 16.6486C4.72463 17.7076 3.86433 18.5679 2.80696 18.5679C1.7496 18.5679 0.887695 17.7076 0.887695 16.6486C0.887695 15.5897 1.7496 14.7294 2.80696 14.7294C3.86433 14.7294 4.72463 15.5897 4.72463 16.6486Z" fill="#898A8D"/>
<path d="M4.72463 9.47221C4.72463 10.5312 3.86433 11.3915 2.80696 11.3915C1.7496 11.3915 0.887695 10.5312 0.887695 9.47221C0.887695 8.41325 1.7496 7.55294 2.80696 7.55294C3.86433 7.55294 4.72463 8.41325 4.72463 9.47221Z" fill="#898A8D"/>
<path d="M4.72463 2.29736C4.72463 3.35632 3.86433 4.21663 2.80696 4.21663C1.7496 4.21663 0.887695 3.35632 0.887695 2.29736C0.887695 1.2384 1.7496 0.37809 2.80696 0.37809C3.86433 0.37809 4.72463 1.2384 4.72463 2.29736Z" fill="#898A8D"/>
</svg>
