<svg width="42" height="42" viewBox="0 0 42 42" fill="none" xmlns="http://www.w3.org/2000/svg">
<circle cx="21.3159" cy="20.59" r="20.5" fill="#7869C6"/>
<path d="M15.031 22.4322C14.1073 22.4322 13.3569 21.6818 13.3569 20.7595C13.3569 19.8372 14.1073 19.0854 15.031 19.0854C15.9546 19.0854 16.705 19.8372 16.705 20.7595C16.705 21.6818 15.9546 22.4322 15.031 22.4322Z" fill="white"/>
<path d="M21.2903 22.4322C20.3666 22.4322 19.6162 21.6818 19.6162 20.7595C19.6162 19.8372 20.3666 19.0854 21.2903 19.0854C22.2139 19.0854 22.9643 19.8372 22.9643 20.7595C22.9643 21.6818 22.2139 22.4322 21.2903 22.4322Z" fill="white"/>
<path d="M27.549 22.4322C26.6254 22.4322 25.875 21.6818 25.875 20.7595C25.875 19.8372 26.6254 19.0854 27.549 19.0854C28.4727 19.0854 29.2231 19.8372 29.2231 20.7595C29.2231 21.6818 28.4727 22.4322 27.549 22.4322Z" fill="white"/>
</svg>
