<svg width="43" height="43" viewBox="0 0 43 43" fill="none" xmlns="http://www.w3.org/2000/svg">
<path fill-rule="evenodd" clip-rule="evenodd" d="M21.5986 42.4454C9.85895 42.4454 0.345703 33.0763 0.345703 21.5224C0.345703 9.96842 9.85895 0.601578 21.5986 0.601578C33.3359 0.601578 42.8514 9.96842 42.8514 21.5224C42.8514 33.0763 33.3359 42.4454 21.5986 42.4454ZM2.31209 21.5226C2.31209 29.5539 7.38856 36.4154 14.5525 39.1784C14.3841 37.6793 14.2338 35.3779 14.6208 33.7376C14.9691 32.2586 16.879 24.3147 16.879 24.3147C16.879 24.3147 16.3031 23.1786 16.3031 21.5002C16.3031 18.8627 17.8534 16.8952 19.7883 16.8952C21.4296 16.8952 22.2241 18.1097 22.2241 19.5663C22.2241 21.1932 21.1724 23.6245 20.6283 25.8788C20.1753 27.7679 21.5913 29.3051 23.4807 29.3051C26.9045 29.3051 29.536 25.7511 29.536 20.6217C29.536 16.0817 26.2238 12.9087 21.4911 12.9087C16.0117 12.9087 12.7951 16.9557 12.7951 21.1371C12.7951 22.7663 13.4302 24.5141 14.227 25.4643C14.3841 25.6525 14.4068 25.8161 14.3613 26.0088C14.2156 26.6071 13.8901 27.8956 13.8263 28.1578C13.7421 28.5051 13.5463 28.5791 13.1798 28.4133C10.7759 27.3107 9.27345 23.8464 9.27345 21.0677C9.27345 15.0868 13.6875 9.59218 21.9988 9.59218C28.6801 9.59218 33.8727 14.2801 33.8727 20.5433C33.8727 27.0777 29.6863 32.337 23.8791 32.337C21.9259 32.337 20.0911 31.3376 19.4628 30.1589C19.4628 30.1589 18.4976 33.7779 18.2631 34.6653C17.8283 36.3123 16.6537 38.3762 15.8706 39.6355C17.6712 40.1868 19.5857 40.4826 21.5731 40.4826C32.2109 40.4826 40.834 31.9942 40.834 21.5226C40.834 11.0487 32.2109 2.56256 21.5731 2.56256C10.9353 2.56256 2.31209 11.0487 2.31209 21.5226Z" fill="#999999"/>
</svg>
