<svg width="23" height="25" viewBox="0 0 23 25" fill="none" xmlns="http://www.w3.org/2000/svg">
<path d="M1.74512 24.1602C1.4799 24.1602 1.22555 24.0548 1.03801 23.8673C0.850474 23.6797 0.745117 23.4254 0.745117 23.1602V1.16015C0.745147 0.986382 0.790458 0.815619 0.876584 0.664693C0.96271 0.513768 1.08668 0.38789 1.23627 0.299467C1.38586 0.211045 1.55591 0.163129 1.72966 0.160444C1.90341 0.157758 2.07486 0.200396 2.22712 0.284153L22.2271 11.2842C22.3839 11.3705 22.5146 11.4973 22.6057 11.6514C22.6968 11.8055 22.7448 11.9812 22.7448 12.1602C22.7448 12.3391 22.6968 12.5148 22.6057 12.6689C22.5146 12.823 22.3839 12.9498 22.2271 13.0362L2.22712 24.0362C2.07947 24.1174 1.91367 24.1601 1.74512 24.1602Z" fill="#230B34"/>
</svg>
