<svg width="27" height="62" viewBox="0 0 27 62" fill="none" xmlns="http://www.w3.org/2000/svg">
<path d="M7.56151 49.5422C7.09751 49.5422 6.66951 49.4622 6.27751 49.3022C5.89351 49.1422 5.56151 48.9062 5.28151 48.5942C5.00951 48.2822 4.80951 47.9022 4.68151 47.4542L5.60551 47.2382C5.75751 47.6862 6.00151 48.0342 6.33751 48.2822C6.67351 48.5222 7.07351 48.6422 7.53751 48.6422C7.88951 48.6422 8.20551 48.5742 8.48551 48.4382C8.76551 48.3022 8.98551 48.1142 9.14551 47.8742C9.30551 47.6342 9.38551 47.3622 9.38551 47.0582C9.38551 46.7382 9.30551 46.4622 9.14551 46.2302C8.99351 45.9982 8.77351 45.8182 8.48551 45.6902C8.20551 45.5622 7.87351 45.4982 7.48951 45.4982H6.58951V44.5982H7.45351C7.81351 44.5982 8.12151 44.5382 8.37751 44.4182C8.64151 44.2982 8.84551 44.1302 8.98951 43.9142C9.13351 43.6902 9.20551 43.4342 9.20551 43.1462C9.20551 42.8822 9.13351 42.6502 8.98951 42.4502C8.85351 42.2422 8.66551 42.0822 8.42551 41.9702C8.18551 41.8582 7.90551 41.8022 7.58551 41.8022C7.14551 41.8022 6.76551 41.9222 6.44551 42.1622C6.13351 42.3942 5.90951 42.7222 5.77351 43.1462L4.86151 42.9302C4.96551 42.5142 5.14551 42.1582 5.40151 41.8622C5.66551 41.5582 5.98951 41.3222 6.37351 41.1542C6.75751 40.9862 7.17751 40.9022 7.63351 40.9022C8.00151 40.9022 8.34151 40.9582 8.65351 41.0702C8.97351 41.1742 9.24951 41.3262 9.48151 41.5262C9.71351 41.7182 9.89351 41.9502 10.0215 42.2222C10.1495 42.4862 10.2135 42.7782 10.2135 43.0982C10.2135 43.5302 10.1055 43.9102 9.88951 44.2382C9.67351 44.5662 9.36151 44.8222 8.95351 45.0062C9.40151 45.1662 9.75351 45.4262 10.0095 45.7862C10.2655 46.1462 10.3935 46.5742 10.3935 47.0702C10.3935 47.4142 10.3215 47.7382 10.1775 48.0422C10.0335 48.3382 9.83351 48.6022 9.57751 48.8342C9.32151 49.0582 9.02151 49.2342 8.67751 49.3622C8.33351 49.4822 7.96151 49.5422 7.56151 49.5422ZM12.4032 49.3982C12.2752 49.3982 12.1552 49.3662 12.0432 49.3022C11.9392 49.2382 11.8552 49.1542 11.7912 49.0502C11.7272 48.9382 11.6952 48.8142 11.6952 48.6782C11.6952 48.5422 11.7272 48.4222 11.7912 48.3182C11.8552 48.2062 11.9392 48.1182 12.0432 48.0542C12.1552 47.9902 12.2752 47.9582 12.4032 47.9582C12.5312 47.9582 12.6472 47.9902 12.7512 48.0542C12.8632 48.1182 12.9512 48.2062 13.0152 48.3182C13.0872 48.4222 13.1232 48.5422 13.1232 48.6782C13.1232 48.8142 13.0872 48.9382 13.0152 49.0502C12.9512 49.1542 12.8632 49.2382 12.7512 49.3022C12.6472 49.3662 12.5312 49.3982 12.4032 49.3982ZM12.4032 44.5742C12.2752 44.5742 12.1552 44.5422 12.0432 44.4782C11.9392 44.4142 11.8552 44.3302 11.7912 44.2262C11.7272 44.1142 11.6952 43.9902 11.6952 43.8542C11.6952 43.7182 11.7272 43.5982 11.7912 43.4942C11.8552 43.3822 11.9392 43.2942 12.0432 43.2302C12.1552 43.1662 12.2752 43.1342 12.4032 43.1342C12.5312 43.1342 12.6472 43.1662 12.7512 43.2302C12.8632 43.2942 12.9512 43.3822 13.0152 43.4942C13.0872 43.5982 13.1232 43.7182 13.1232 43.8542C13.1232 43.9902 13.0872 44.1142 13.0152 44.2262C12.9512 44.3302 12.8632 44.4142 12.7512 44.4782C12.6472 44.5422 12.5312 44.5742 12.4032 44.5742ZM18.24 49.3622V47.4062H14.268V46.6382L18.204 41.0822H19.188V46.5662H20.256V47.4062H19.188V49.3622H18.24ZM15.324 46.5662H18.24V42.4502L15.324 46.5662Z" fill="#898A8D"/>
<rect x="1.26221" y="1.45557" width="24.4032" height="32.871" stroke="#A8A8A8"/>
</svg>
