<svg width="35" height="57" viewBox="0 0 35 57" fill="none" xmlns="http://www.w3.org/2000/svg">
<path d="M13.4202 44.3622V42.4062H9.44819V41.6382L13.3842 36.0822H14.3682V41.5662H15.4362V42.4062H14.3682V44.3622H13.4202ZM10.5042 41.5662H13.4202V37.4502L10.5042 41.5662ZM17.3451 44.3982C17.2171 44.3982 17.0971 44.3662 16.9851 44.3022C16.8811 44.2382 16.7971 44.1542 16.7331 44.0502C16.6691 43.9382 16.6371 43.8142 16.6371 43.6782C16.6371 43.5422 16.6691 43.4222 16.7331 43.3182C16.7971 43.2062 16.8811 43.1182 16.9851 43.0542C17.0971 42.9902 17.2171 42.9582 17.3451 42.9582C17.4731 42.9582 17.5891 42.9902 17.6931 43.0542C17.8051 43.1182 17.8931 43.2062 17.9571 43.3182C18.0291 43.4222 18.0651 43.5422 18.0651 43.6782C18.0651 43.8142 18.0291 43.9382 17.9571 44.0502C17.8931 44.1542 17.8051 44.2382 17.6931 44.3022C17.5891 44.3662 17.4731 44.3982 17.3451 44.3982ZM17.3451 39.5742C17.2171 39.5742 17.0971 39.5422 16.9851 39.4782C16.8811 39.4142 16.7971 39.3302 16.7331 39.2262C16.6691 39.1142 16.6371 38.9902 16.6371 38.8542C16.6371 38.7182 16.6691 38.5982 16.7331 38.4942C16.7971 38.3822 16.8811 38.2942 16.9851 38.2302C17.0971 38.1662 17.2171 38.1342 17.3451 38.1342C17.4731 38.1342 17.5891 38.1662 17.6931 38.2302C17.8051 38.2942 17.8931 38.3822 17.9571 38.4942C18.0291 38.5982 18.0651 38.7182 18.0651 38.8542C18.0651 38.9902 18.0291 39.1142 17.9571 39.2262C17.8931 39.3302 17.8051 39.4142 17.6931 39.4782C17.5891 39.5422 17.4731 39.5742 17.3451 39.5742ZM22.0659 44.5422C21.6019 44.5422 21.1739 44.4622 20.7819 44.3022C20.3979 44.1422 20.0659 43.9062 19.7859 43.5942C19.5139 43.2822 19.3139 42.9022 19.1859 42.4542L20.1099 42.2382C20.2619 42.6862 20.5059 43.0342 20.8419 43.2822C21.1779 43.5222 21.5779 43.6422 22.0419 43.6422C22.3939 43.6422 22.7099 43.5742 22.9899 43.4382C23.2699 43.3022 23.4899 43.1142 23.6499 42.8742C23.8099 42.6342 23.8899 42.3622 23.8899 42.0582C23.8899 41.7382 23.8099 41.4622 23.6499 41.2302C23.4979 40.9982 23.2779 40.8182 22.9899 40.6902C22.7099 40.5622 22.3779 40.4982 21.9939 40.4982H21.0939V39.5982H21.9579C22.3179 39.5982 22.6259 39.5382 22.8819 39.4182C23.1459 39.2982 23.3499 39.1302 23.4939 38.9142C23.6379 38.6902 23.7099 38.4342 23.7099 38.1462C23.7099 37.8822 23.6379 37.6502 23.4939 37.4502C23.3579 37.2422 23.1699 37.0822 22.9299 36.9702C22.6899 36.8582 22.4099 36.8022 22.0899 36.8022C21.6499 36.8022 21.2699 36.9222 20.9499 37.1622C20.6379 37.3942 20.4139 37.7222 20.2779 38.1462L19.3659 37.9302C19.4699 37.5142 19.6499 37.1582 19.9059 36.8622C20.1699 36.5582 20.4939 36.3222 20.8779 36.1542C21.2619 35.9862 21.6819 35.9022 22.1379 35.9022C22.5059 35.9022 22.8459 35.9582 23.1579 36.0702C23.4779 36.1742 23.7539 36.3262 23.9859 36.5262C24.2179 36.7182 24.3979 36.9502 24.5259 37.2222C24.6539 37.4862 24.7179 37.7782 24.7179 38.0982C24.7179 38.5302 24.6099 38.9102 24.3939 39.2382C24.1779 39.5662 23.8659 39.8222 23.4579 40.0062C23.9059 40.1662 24.2579 40.4262 24.5139 40.7862C24.7699 41.1462 24.8979 41.5742 24.8979 42.0702C24.8979 42.4142 24.8259 42.7382 24.6819 43.0422C24.5379 43.3382 24.3379 43.6022 24.0819 43.8342C23.8259 44.0582 23.5259 44.2342 23.1819 44.3622C22.8379 44.4822 22.4659 44.5422 22.0659 44.5422Z" fill="#898A8D"/>
<rect x="1.05664" y="25.0927" width="24.4032" height="32.871" transform="rotate(-90 1.05664 25.0927)" stroke="#A8A8A8"/>
</svg>
