<svg width="22" height="55" viewBox="0 0 22 55" fill="none" xmlns="http://www.w3.org/2000/svg">
<path d="M7.14684 42.3622V35.1742L5.17884 36.2782L4.78284 35.4862L7.32684 34.0822H8.13084V42.3622H7.14684ZM10.8793 42.3982C10.7513 42.3982 10.6313 42.3662 10.5193 42.3022C10.4153 42.2382 10.3313 42.1542 10.2673 42.0502C10.2033 41.9382 10.1713 41.8142 10.1713 41.6782C10.1713 41.5422 10.2033 41.4222 10.2673 41.3182C10.3313 41.2062 10.4153 41.1182 10.5193 41.0542C10.6313 40.9902 10.7513 40.9582 10.8793 40.9582C11.0073 40.9582 11.1233 40.9902 11.2273 41.0542C11.3393 41.1182 11.4273 41.2062 11.4913 41.3182C11.5633 41.4222 11.5993 41.5422 11.5993 41.6782C11.5993 41.8142 11.5633 41.9382 11.4913 42.0502C11.4273 42.1542 11.3393 42.2382 11.2273 42.3022C11.1233 42.3662 11.0073 42.3982 10.8793 42.3982ZM10.8793 37.5742C10.7513 37.5742 10.6313 37.5422 10.5193 37.4782C10.4153 37.4142 10.3313 37.3302 10.2673 37.2262C10.2033 37.1142 10.1713 36.9902 10.1713 36.8542C10.1713 36.7182 10.2033 36.5982 10.2673 36.4942C10.3313 36.3822 10.4153 36.2942 10.5193 36.2302C10.6313 36.1662 10.7513 36.1342 10.8793 36.1342C11.0073 36.1342 11.1233 36.1662 11.2273 36.2302C11.3393 36.2942 11.4273 36.3822 11.4913 36.4942C11.5633 36.5982 11.5993 36.7182 11.5993 36.8542C11.5993 36.9902 11.5633 37.1142 11.4913 37.2262C11.4273 37.3302 11.3393 37.4142 11.2273 37.4782C11.1233 37.5422 11.0073 37.5742 10.8793 37.5742ZM14.9281 42.3622V35.1742L12.9601 36.2782L12.5641 35.4862L15.1081 34.0822H15.9121V42.3622H14.9281Z" fill="#898A8D"/>
<rect x="1.03564" y="0.919922" width="19.9423" height="19.9423" stroke="#A8A8A8"/>
</svg>
