<svg width="24" height="62" viewBox="0 0 24 62" fill="none" xmlns="http://www.w3.org/2000/svg">
<path d="M4.41502 49.3622V48.5462C4.95902 48.0982 5.46702 47.6622 5.93902 47.2382C6.41902 46.8062 6.83902 46.4062 7.19902 46.0382C7.57502 45.6542 7.87102 45.3182 8.08702 45.0302C8.31102 44.7422 8.47102 44.4782 8.56702 44.2382C8.66302 43.9902 8.71102 43.7382 8.71102 43.4822C8.71102 43.1462 8.64302 42.8542 8.50702 42.6062C8.37102 42.3502 8.18302 42.1542 7.94302 42.0182C7.71102 41.8742 7.43502 41.8022 7.11502 41.8022C6.68302 41.8022 6.31102 41.9342 5.99902 42.1982C5.68702 42.4622 5.46302 42.8302 5.32702 43.3022L4.41502 43.0742C4.51902 42.6342 4.70302 42.2542 4.96702 41.9342C5.23102 41.6062 5.54702 41.3542 5.91502 41.1782C6.29102 40.9942 6.69902 40.9022 7.13902 40.9022C7.50702 40.9022 7.84702 40.9662 8.15902 41.0942C8.47102 41.2142 8.74302 41.3862 8.97502 41.6102C9.20702 41.8342 9.38702 42.0982 9.51502 42.4022C9.65102 42.7062 9.71902 43.0342 9.71902 43.3862C9.71902 43.8982 9.56702 44.4182 9.26302 44.9462C8.96702 45.4662 8.49502 46.0422 7.84702 46.6742C7.69502 46.8182 7.51102 46.9862 7.29502 47.1782C7.08702 47.3702 6.85902 47.5742 6.61102 47.7902C6.37102 48.0062 6.12302 48.2222 5.86702 48.4382H9.86302V49.3622H4.41502ZM11.9447 49.3982C11.8167 49.3982 11.6967 49.3662 11.5847 49.3022C11.4807 49.2382 11.3967 49.1542 11.3327 49.0502C11.2687 48.9382 11.2367 48.8142 11.2367 48.6782C11.2367 48.5422 11.2687 48.4222 11.3327 48.3182C11.3967 48.2062 11.4807 48.1182 11.5847 48.0542C11.6967 47.9902 11.8167 47.9582 11.9447 47.9582C12.0727 47.9582 12.1887 47.9902 12.2927 48.0542C12.4047 48.1182 12.4927 48.2062 12.5567 48.3182C12.6287 48.4222 12.6647 48.5422 12.6647 48.6782C12.6647 48.8142 12.6287 48.9382 12.5567 49.0502C12.4927 49.1542 12.4047 49.2382 12.2927 49.3022C12.1887 49.3662 12.0727 49.3982 11.9447 49.3982ZM11.9447 44.5742C11.8167 44.5742 11.6967 44.5422 11.5847 44.4782C11.4807 44.4142 11.3967 44.3302 11.3327 44.2262C11.2687 44.1142 11.2367 43.9902 11.2367 43.8542C11.2367 43.7182 11.2687 43.5982 11.3327 43.4942C11.3967 43.3822 11.4807 43.2942 11.5847 43.2302C11.6967 43.1662 11.8167 43.1342 11.9447 43.1342C12.0727 43.1342 12.1887 43.1662 12.2927 43.2302C12.4047 43.2942 12.4927 43.3822 12.5567 43.4942C12.6287 43.5982 12.6647 43.7182 12.6647 43.8542C12.6647 43.9902 12.6287 44.1142 12.5567 44.2262C12.4927 44.3302 12.4047 44.4142 12.2927 44.4782C12.1887 44.5422 12.0727 44.5742 11.9447 44.5742ZM16.6655 49.5422C16.2015 49.5422 15.7735 49.4622 15.3815 49.3022C14.9975 49.1422 14.6655 48.9062 14.3855 48.5942C14.1135 48.2822 13.9135 47.9022 13.7855 47.4542L14.7095 47.2382C14.8615 47.6862 15.1055 48.0342 15.4415 48.2822C15.7775 48.5222 16.1775 48.6422 16.6415 48.6422C16.9935 48.6422 17.3095 48.5742 17.5895 48.4382C17.8695 48.3022 18.0895 48.1142 18.2495 47.8742C18.4095 47.6342 18.4895 47.3622 18.4895 47.0582C18.4895 46.7382 18.4095 46.4622 18.2495 46.2302C18.0975 45.9982 17.8775 45.8182 17.5895 45.6902C17.3095 45.5622 16.9775 45.4982 16.5935 45.4982H15.6935V44.5982H16.5575C16.9175 44.5982 17.2255 44.5382 17.4815 44.4182C17.7455 44.2982 17.9495 44.1302 18.0935 43.9142C18.2375 43.6902 18.3095 43.4342 18.3095 43.1462C18.3095 42.8822 18.2375 42.6502 18.0935 42.4502C17.9575 42.2422 17.7695 42.0822 17.5295 41.9702C17.2895 41.8582 17.0095 41.8022 16.6895 41.8022C16.2495 41.8022 15.8695 41.9222 15.5495 42.1622C15.2375 42.3942 15.0135 42.7222 14.8775 43.1462L13.9655 42.9302C14.0695 42.5142 14.2495 42.1582 14.5055 41.8622C14.7695 41.5582 15.0935 41.3222 15.4775 41.1542C15.8615 40.9862 16.2815 40.9022 16.7375 40.9022C17.1055 40.9022 17.4455 40.9582 17.7575 41.0702C18.0775 41.1742 18.3535 41.3262 18.5855 41.5262C18.8175 41.7182 18.9975 41.9502 19.1255 42.2222C19.2535 42.4862 19.3175 42.7782 19.3175 43.0982C19.3175 43.5302 19.2095 43.9102 18.9935 44.2382C18.7775 44.5662 18.4655 44.8222 18.0575 45.0062C18.5055 45.1662 18.8575 45.4262 19.1135 45.7862C19.3695 46.1462 19.4975 46.5742 19.4975 47.0702C19.4975 47.4142 19.4255 47.7382 19.2815 48.0422C19.1375 48.3382 18.9375 48.6022 18.6815 48.8342C18.4255 49.0582 18.1255 49.2342 17.7815 49.3622C17.4375 49.4822 17.0655 49.5422 16.6655 49.5422Z" fill="#898A8D"/>
<rect x="1.36865" y="1.25769" width="21.8445" height="33.2668" stroke="#A8A8A8"/>
</svg>
