<svg width="35" height="56" viewBox="0 0 35 56" fill="none" xmlns="http://www.w3.org/2000/svg">
<path d="M12.0498 43.5422C11.5858 43.5422 11.1578 43.4622 10.7658 43.3022C10.3818 43.1422 10.0498 42.9062 9.76979 42.5942C9.49779 42.2822 9.29779 41.9022 9.16979 41.4542L10.0938 41.2382C10.2458 41.6862 10.4898 42.0342 10.8258 42.2822C11.1618 42.5222 11.5618 42.6422 12.0258 42.6422C12.3778 42.6422 12.6938 42.5742 12.9738 42.4382C13.2538 42.3022 13.4738 42.1142 13.6338 41.8742C13.7938 41.6342 13.8738 41.3622 13.8738 41.0582C13.8738 40.7382 13.7938 40.4622 13.6338 40.2302C13.4818 39.9982 13.2618 39.8182 12.9738 39.6902C12.6938 39.5622 12.3618 39.4982 11.9778 39.4982H11.0778V38.5982H11.9418C12.3018 38.5982 12.6098 38.5382 12.8658 38.4182C13.1298 38.2982 13.3338 38.1302 13.4778 37.9142C13.6218 37.6902 13.6938 37.4342 13.6938 37.1462C13.6938 36.8822 13.6218 36.6502 13.4778 36.4502C13.3418 36.2422 13.1538 36.0822 12.9138 35.9702C12.6738 35.8582 12.3938 35.8022 12.0738 35.8022C11.6338 35.8022 11.2538 35.9222 10.9338 36.1622C10.6218 36.3942 10.3978 36.7222 10.2618 37.1462L9.34979 36.9302C9.45379 36.5142 9.63379 36.1582 9.88979 35.8622C10.1538 35.5582 10.4778 35.3222 10.8618 35.1542C11.2458 34.9862 11.6658 34.9022 12.1218 34.9022C12.4898 34.9022 12.8298 34.9582 13.1418 35.0702C13.4618 35.1742 13.7378 35.3262 13.9698 35.5262C14.2018 35.7182 14.3818 35.9502 14.5098 36.2222C14.6378 36.4862 14.7018 36.7782 14.7018 37.0982C14.7018 37.5302 14.5938 37.9102 14.3778 38.2382C14.1618 38.5662 13.8498 38.8222 13.4418 39.0062C13.8898 39.1662 14.2418 39.4262 14.4978 39.7862C14.7538 40.1462 14.8818 40.5742 14.8818 41.0702C14.8818 41.4142 14.8098 41.7382 14.6658 42.0422C14.5218 42.3382 14.3218 42.6022 14.0658 42.8342C13.8098 43.0582 13.5098 43.2342 13.1658 43.3622C12.8218 43.4822 12.4498 43.5422 12.0498 43.5422ZM16.8915 43.3982C16.7635 43.3982 16.6435 43.3662 16.5315 43.3022C16.4275 43.2382 16.3435 43.1542 16.2795 43.0502C16.2155 42.9382 16.1835 42.8142 16.1835 42.6782C16.1835 42.5422 16.2155 42.4222 16.2795 42.3182C16.3435 42.2062 16.4275 42.1182 16.5315 42.0542C16.6435 41.9902 16.7635 41.9582 16.8915 41.9582C17.0195 41.9582 17.1355 41.9902 17.2395 42.0542C17.3515 42.1182 17.4395 42.2062 17.5035 42.3182C17.5755 42.4222 17.6115 42.5422 17.6115 42.6782C17.6115 42.8142 17.5755 42.9382 17.5035 43.0502C17.4395 43.1542 17.3515 43.2382 17.2395 43.3022C17.1355 43.3662 17.0195 43.3982 16.8915 43.3982ZM16.8915 38.5742C16.7635 38.5742 16.6435 38.5422 16.5315 38.4782C16.4275 38.4142 16.3435 38.3302 16.2795 38.2262C16.2155 38.1142 16.1835 37.9902 16.1835 37.8542C16.1835 37.7182 16.2155 37.5982 16.2795 37.4942C16.3435 37.3822 16.4275 37.2942 16.5315 37.2302C16.6435 37.1662 16.7635 37.1342 16.8915 37.1342C17.0195 37.1342 17.1355 37.1662 17.2395 37.2302C17.3515 37.2942 17.4395 37.3822 17.5035 37.4942C17.5755 37.5982 17.6115 37.7182 17.6115 37.8542C17.6115 37.9902 17.5755 38.1142 17.5035 38.2262C17.4395 38.3302 17.3515 38.4142 17.2395 38.4782C17.1355 38.5422 17.0195 38.5742 16.8915 38.5742ZM18.9243 43.3622V42.5462C19.4683 42.0982 19.9763 41.6622 20.4483 41.2382C20.9283 40.8062 21.3483 40.4062 21.7083 40.0382C22.0843 39.6542 22.3803 39.3182 22.5963 39.0302C22.8203 38.7422 22.9803 38.4782 23.0763 38.2382C23.1723 37.9902 23.2203 37.7382 23.2203 37.4822C23.2203 37.1462 23.1523 36.8542 23.0163 36.6062C22.8803 36.3502 22.6923 36.1542 22.4523 36.0182C22.2203 35.8742 21.9443 35.8022 21.6243 35.8022C21.1923 35.8022 20.8203 35.9342 20.5083 36.1982C20.1963 36.4622 19.9723 36.8302 19.8363 37.3022L18.9243 37.0742C19.0283 36.6342 19.2123 36.2542 19.4763 35.9342C19.7403 35.6062 20.0563 35.3542 20.4243 35.1782C20.8003 34.9942 21.2083 34.9022 21.6483 34.9022C22.0163 34.9022 22.3563 34.9662 22.6683 35.0942C22.9803 35.2142 23.2523 35.3862 23.4843 35.6102C23.7163 35.8342 23.8963 36.0982 24.0243 36.4022C24.1603 36.7062 24.2283 37.0342 24.2283 37.3862C24.2283 37.8982 24.0763 38.4182 23.7723 38.9462C23.4763 39.4662 23.0043 40.0422 22.3563 40.6742C22.2043 40.8182 22.0203 40.9862 21.8043 41.1782C21.5963 41.3702 21.3683 41.5742 21.1203 41.7902C20.8803 42.0062 20.6323 42.2222 20.3763 42.4382H24.3723V43.3622H18.9243Z" fill="#898A8D"/>
<rect x="0.604492" y="22.8134" width="21.8445" height="33.2668" transform="rotate(-90 0.604492 22.8134)" stroke="#A8A8A8"/>
</svg>
