<svg width="31" height="63" viewBox="0 0 31 63" fill="none" xmlns="http://www.w3.org/2000/svg">
<path d="M11.3855 50.3622V48.4062H7.41352V47.6382L11.3495 42.0822H12.3335V47.5662H13.4015V48.4062H12.3335V50.3622H11.3855ZM8.46952 47.5662H11.3855V43.4502L8.46952 47.5662ZM15.3105 50.3982C15.1825 50.3982 15.0625 50.3662 14.9505 50.3022C14.8465 50.2382 14.7625 50.1542 14.6985 50.0502C14.6345 49.9382 14.6025 49.8142 14.6025 49.6782C14.6025 49.5422 14.6345 49.4222 14.6985 49.3182C14.7625 49.2062 14.8465 49.1182 14.9505 49.0542C15.0625 48.9902 15.1825 48.9582 15.3105 48.9582C15.4385 48.9582 15.5545 48.9902 15.6585 49.0542C15.7705 49.1182 15.8585 49.2062 15.9225 49.3182C15.9945 49.4222 16.0305 49.5422 16.0305 49.6782C16.0305 49.8142 15.9945 49.9382 15.9225 50.0502C15.8585 50.1542 15.7705 50.2382 15.6585 50.3022C15.5545 50.3662 15.4385 50.3982 15.3105 50.3982ZM15.3105 45.5742C15.1825 45.5742 15.0625 45.5422 14.9505 45.4782C14.8465 45.4142 14.7625 45.3302 14.6985 45.2262C14.6345 45.1142 14.6025 44.9902 14.6025 44.8542C14.6025 44.7182 14.6345 44.5982 14.6985 44.4942C14.7625 44.3822 14.8465 44.2942 14.9505 44.2302C15.0625 44.1662 15.1825 44.1342 15.3105 44.1342C15.4385 44.1342 15.5545 44.1662 15.6585 44.2302C15.7705 44.2942 15.8585 44.3822 15.9225 44.4942C15.9945 44.5982 16.0305 44.7182 16.0305 44.8542C16.0305 44.9902 15.9945 45.1142 15.9225 45.2262C15.8585 45.3302 15.7705 45.4142 15.6585 45.4782C15.5545 45.5422 15.4385 45.5742 15.3105 45.5742ZM20.0432 50.5422C19.5872 50.5422 19.1632 50.4582 18.7712 50.2902C18.3872 50.1142 18.0552 49.8702 17.7752 49.5582C17.5032 49.2462 17.3032 48.8742 17.1752 48.4422L18.0992 48.2262C18.1952 48.5222 18.3392 48.7782 18.5312 48.9942C18.7232 49.2022 18.9472 49.3622 19.2032 49.4742C19.4592 49.5862 19.7392 49.6422 20.0432 49.6422C20.3952 49.6422 20.7072 49.5622 20.9792 49.4022C21.2512 49.2422 21.4672 49.0222 21.6272 48.7422C21.7872 48.4622 21.8672 48.1462 21.8672 47.7942C21.8672 47.4422 21.7872 47.1302 21.6272 46.8582C21.4752 46.5862 21.2592 46.3742 20.9792 46.2222C20.7072 46.0622 20.3912 45.9822 20.0312 45.9822C19.8472 45.9822 19.6552 46.0102 19.4552 46.0662C19.2632 46.1222 19.0792 46.2022 18.9032 46.3062C18.7352 46.4022 18.5912 46.5142 18.4712 46.6422L17.6672 46.5342V42.0822H22.2752V43.0062H18.5912V45.6582C18.9992 45.2742 19.5352 45.0822 20.1992 45.0822C20.5832 45.0822 20.9352 45.1502 21.2552 45.2862C21.5832 45.4222 21.8672 45.6142 22.1072 45.8622C22.3552 46.1022 22.5432 46.3902 22.6712 46.7262C22.8072 47.0542 22.8752 47.4102 22.8752 47.7942C22.8752 48.1862 22.8032 48.5502 22.6592 48.8862C22.5152 49.2142 22.3112 49.5022 22.0472 49.7502C21.7912 49.9982 21.4912 50.1942 21.1472 50.3382C20.8112 50.4742 20.4432 50.5422 20.0432 50.5422Z" fill="#898A8D"/>
<rect x="1.31885" y="1.09253" width="28.2776" height="35.5971" stroke="#A8A8A8"/>
</svg>
