<svg width="43" height="43" viewBox="0 0 43 43" fill="none" xmlns="http://www.w3.org/2000/svg">
<path fill-rule="evenodd" clip-rule="evenodd" d="M21.2883 42.9039C9.53109 42.9039 0 33.3728 0 21.6156C0 9.85839 9.53109 0.327301 21.2883 0.327301C33.0455 0.327301 42.5766 9.85839 42.5766 21.6156C42.5766 33.3728 33.0455 42.9039 21.2883 42.9039ZM36.8997 21.3384C36.8997 19.3914 35.3088 17.8072 33.3529 17.8072C32.4583 17.8072 31.642 18.1417 31.0176 18.6878C28.7953 17.2666 25.8574 16.3417 22.6039 16.1798L24.3147 10.7962L28.9825 11.8905C29.0349 13.4588 30.3293 14.7199 31.9177 14.7199C33.5387 14.7199 34.8577 13.407 34.8577 11.7928C34.8577 10.1786 33.5384 8.86574 31.9177 8.86574C30.7402 8.86574 29.7253 9.55997 29.2558 10.557L24.0106 9.32833C23.6632 9.2472 23.3102 9.44639 23.2038 9.7854L21.1785 16.1588C17.7145 16.2264 14.572 17.1578 12.2169 18.6412C11.5994 18.122 10.8022 17.8072 9.9333 17.8072C7.97733 17.8075 6.38648 19.3914 6.38648 21.3384C6.38648 22.578 7.03281 23.6679 8.00576 24.2976C7.95618 24.6138 7.92948 24.9341 7.92948 25.2583C7.92948 30.2794 14.0529 34.3647 21.5807 34.3647C29.1077 34.3647 35.2319 30.2794 35.2319 25.2583C35.2319 24.9576 35.209 24.6604 35.1663 24.3663C36.2013 23.7504 36.8997 22.6257 36.8997 21.3384Z" fill="#999999"/>
<path fill-rule="evenodd" clip-rule="evenodd" d="M34.7922 22.964C34.2932 21.685 33.3848 20.515 32.1688 19.5184C32.5099 19.2971 32.9163 19.1673 33.3532 19.1673C34.5557 19.1673 35.5339 20.1412 35.5339 21.3384C35.5332 21.9856 35.2454 22.5663 34.7922 22.964Z" fill="#999999"/>
<path fill-rule="evenodd" clip-rule="evenodd" d="M31.9177 10.2266C32.7856 10.2266 33.4916 10.9298 33.4916 11.7939C33.4916 12.6579 32.7856 13.3608 31.9177 13.3608C31.0495 13.3608 30.3435 12.6579 30.3435 11.7939C30.3435 10.9298 31.0495 10.2266 31.9177 10.2266Z" fill="#999999"/>
<path fill-rule="evenodd" clip-rule="evenodd" d="M33.8657 25.259C33.8657 29.5296 28.3539 33.0049 21.5807 33.0049C14.8064 33.0049 9.29564 29.53 9.29564 25.259C9.29564 25.1085 9.30396 24.96 9.31714 24.8119C9.3584 24.358 9.46381 23.914 9.62435 23.4839C10.0408 22.3688 10.8397 21.3456 11.9309 20.4733C12.28 20.194 12.6583 19.9302 13.0633 19.6841C15.2738 18.3409 18.2759 17.5124 21.5807 17.5124C24.9333 17.5124 27.976 18.3643 30.1937 19.7421C30.5997 19.9938 30.977 20.2637 31.3244 20.5492C32.3723 21.4084 33.1382 22.4103 33.5422 23.4994C33.7013 23.9309 33.8068 24.3752 33.8463 24.8302C33.8584 24.9728 33.8657 25.115 33.8657 25.259ZM19.1746 23.6216C19.1746 22.4748 18.2405 21.5127 17.0883 21.5127C15.9364 21.5127 14.9704 22.4748 14.9704 23.6216C14.9704 24.7681 15.9368 25.6991 17.0883 25.6991C18.2405 25.6978 19.1746 24.7681 19.1746 23.6216ZM26.2294 21.512C25.0776 21.512 24.1084 22.4738 24.1084 23.6206C24.1084 24.7677 25.0776 25.6981 26.2294 25.6981C27.3816 25.6981 28.3165 24.7684 28.3165 23.6206C28.3158 22.4731 27.3816 21.512 26.2294 21.512ZM25.64 28.6566C24.8671 29.425 23.5658 29.7982 21.659 29.7982C21.6531 29.7982 21.6479 29.7999 21.6424 29.7999C21.6365 29.7999 21.6316 29.7982 21.6261 29.7982C19.719 29.7982 18.4174 29.425 17.6455 28.6566C17.3789 28.3908 16.9461 28.3908 16.6795 28.6566C16.4125 28.9228 16.4125 29.3532 16.6795 29.618C17.7201 30.6544 19.3383 31.1587 21.6261 31.1587C21.632 31.1587 21.6368 31.1566 21.6424 31.1566C21.6479 31.1566 21.6531 31.1587 21.659 31.1587C23.9465 31.1587 25.5651 30.6544 26.6067 29.6187C26.874 29.3525 26.874 28.9224 26.6074 28.6573C26.34 28.3915 25.9073 28.3915 25.64 28.6566Z" fill="#999999"/>
<path fill-rule="evenodd" clip-rule="evenodd" d="M7.75264 21.3384C7.75264 20.1415 8.7308 19.1673 9.93295 19.1673C10.339 19.1673 10.7183 19.2809 11.0446 19.4746C9.82789 20.4588 8.91735 21.617 8.40382 22.8829C8.00195 22.489 7.75264 21.9425 7.75264 21.3384Z" fill="#999999"/>
</svg>
