<svg width="44" height="43" viewBox="0 0 44 43" fill="none" xmlns="http://www.w3.org/2000/svg">
<path fill-rule="evenodd" clip-rule="evenodd" d="M13.5271 33.4333C14.3702 33.8782 15.3092 34.1104 16.2624 34.11C19.4374 34.11 22.0294 31.5844 22.1464 28.4367L22.1581 0.327301H29.1713C29.1719 0.924335 29.2275 1.52005 29.3371 2.10693H24.202V2.10791H31.2161C31.2152 4.46045 32.0679 6.73344 33.616 8.50482L33.618 8.50708C35.1972 9.53874 37.0431 10.0873 38.9295 10.0855V11.6475C39.5897 11.7889 40.2724 11.8642 40.9744 11.8642V18.8793C37.4729 18.8834 34.059 17.7856 31.2162 15.7413V29.995C31.2162 37.1125 25.4248 42.9039 18.3063 42.9039C16.5336 42.9043 14.7799 42.5386 13.1551 41.8296C11.5314 41.1212 10.0716 40.0853 8.86667 38.7867L8.86403 38.7848C5.5349 36.4475 3.35254 32.582 3.35254 28.2153C3.35254 21.0968 9.14389 15.3045 16.2624 15.3045C16.8445 15.3072 17.4257 15.3496 18.0021 15.4312V17.0919C18.0426 17.0911 18.0829 17.0897 18.1233 17.0884C18.184 17.0862 18.2448 17.0841 18.3063 17.0841C18.8884 17.0869 19.4696 17.1293 20.0459 17.2109V24.3713C19.496 24.1987 18.9138 24.0982 18.3063 24.0982C16.743 24.1001 15.2443 24.722 14.139 25.8275C13.0337 26.9329 12.4121 28.4317 12.4106 29.9949C12.4107 31.2296 12.8009 32.4328 13.5256 33.4325L13.5271 33.4333ZM6.24799 34.6012C6.84714 36.1622 7.74129 37.5783 8.86118 38.7818C7.7185 37.559 6.83614 36.1368 6.24799 34.6012Z" fill="#999999"/>
</svg>
