<svg width="44" height="44" viewBox="0 0 44 44" fill="none" xmlns="http://www.w3.org/2000/svg">
<path fill-rule="evenodd" clip-rule="evenodd" d="M0.691406 22.27C0.691406 10.5128 10.2225 0.981689 21.9797 0.981689C33.7369 0.981689 43.268 10.5128 43.268 22.27C43.268 34.0272 33.7369 43.5582 21.9797 43.5582C10.2225 43.5582 0.691406 34.0272 0.691406 22.27ZM21.3421 18.2851L21.3868 19.0217L20.6422 18.9315C17.9321 18.5857 15.5645 17.4131 13.5543 15.4438L12.5715 14.4667L12.3183 15.1882C11.7823 16.7968 12.1248 18.4955 13.2416 19.638C13.8372 20.2694 13.7032 20.3596 12.6757 19.9838C12.3183 19.8635 12.0056 19.7733 11.9758 19.8184C11.8716 19.9237 12.229 21.2917 12.5119 21.8329C12.8991 22.5845 13.6883 23.3212 14.5519 23.7571L15.2816 24.1029L14.4179 24.1179C13.584 24.1179 13.5543 24.1329 13.6436 24.4486C13.9414 25.4258 15.1178 26.4631 16.4282 26.9141L17.3514 27.2298L16.5473 27.7108C15.356 28.4024 13.9563 28.7932 12.5566 28.8233C11.8865 28.8383 11.3355 28.8984 11.3355 28.9435C11.3355 29.0939 13.1522 29.9357 14.2095 30.2665C17.3812 31.2436 21.1485 30.8227 23.9778 29.154C25.988 27.9664 27.9982 25.6062 28.9364 23.3212C29.4426 22.1035 29.9489 19.8786 29.9489 18.8112C29.9489 18.1197 29.9936 18.0295 30.8275 17.2027C31.3189 16.7216 31.7805 16.1955 31.8698 16.0451C32.0187 15.7595 32.0039 15.7595 31.2444 16.0151C29.9787 16.4661 29.8 16.4059 30.4254 15.7294C30.887 15.2484 31.438 14.3765 31.438 14.1209C31.438 14.0758 31.2146 14.151 30.9615 14.2863C30.6935 14.4366 30.0978 14.6621 29.6511 14.7974L28.847 15.0529L28.1174 14.5569C27.7153 14.2863 27.1495 13.9856 26.8517 13.8954C26.0922 13.6849 24.9308 13.715 24.2458 13.9555C22.3845 14.632 21.2081 16.3759 21.3421 18.2851Z" fill="#999999"/>
</svg>
