<svg width="43" height="44" viewBox="0 0 43 44" fill="none" xmlns="http://www.w3.org/2000/svg">
<path fill-rule="evenodd" clip-rule="evenodd" d="M0.420898 22.27C0.420898 10.5128 9.95199 0.981689 21.7092 0.981689C33.4664 0.981689 42.9975 10.5128 42.9975 22.27C42.9975 34.0272 33.4664 43.5582 21.7092 43.5582C9.95199 43.5582 0.420898 34.0272 0.420898 22.27ZM32.5884 17.0128C32.3273 16.0096 31.5578 15.2196 30.5807 14.9515C28.81 14.4643 21.7092 14.4643 21.7092 14.4643C21.7092 14.4643 14.6083 14.4643 12.8375 14.9515C11.8604 15.2196 11.091 16.0096 10.8298 17.0128C10.3554 18.8311 10.3554 22.6248 10.3554 22.6248C10.3554 22.6248 10.3554 26.4184 10.8298 28.2367C11.091 29.2399 11.8604 30.0299 12.8375 30.2981C14.6083 30.7853 21.7092 30.7853 21.7092 30.7853C21.7092 30.7853 28.81 30.7853 30.5807 30.2981C31.5578 30.0299 32.3273 29.2399 32.5884 28.2367C33.0629 26.4184 33.0629 22.6248 33.0629 22.6248C33.0629 22.6248 33.0629 18.8311 32.5884 17.0128Z" fill="#999999"/>
<path fill-rule="evenodd" clip-rule="evenodd" d="M19.5801 26.5276V19.4315L25.257 22.9797L19.5801 26.5276Z" fill="#999999"/>
</svg>
